# xmcd
#
# Track frame offsets: 
#        150
#        16426
#        31865
#        52593
#        69106
#        94653
#        109169
#        123253
#        140265
#        155093
#        168803
#
# Disc length: 2557 seconds
#
# Revision: 2
# Processed by: cddbd v1.5.2PL0 Copyright (c) Steve Scherf et al.
# Submitted via: ExactAudioCopy v1.0b3
#
DISCID=7c09fb0b
DTITLE=Dan Patlansky - Perfection Kills
DYEAR=2018
DGENRE=Blues Rock
TTITLE0=Johnny
TTITLE1=Never Long Enough
TTITLE2=Mayday
TTITLE3=Too Far Gone
TTITLE4=Judge A Man
TTITLE5=Junket Man
TTITLE6=iEyes
TTITLE7=Shake The Cage
TTITLE8=My Dear Boy
TTITLE9=Dog Day
TTITLE10=I'll Never Know
EXTD=Location:  - UPC: 602567168591 - Catalogue number: 6716859 - Label:
EXTD=Dan Patlansky Music - ASIN: B0777BSF3V - Release Date: 2018 02 02;
EXTD=Discogs: a4312185 - MUSICBRAINZ_ALBUMID:  - AMG: mn0001726418,mw00
EXTD=03145277 - 
EXTT0=
EXTT1=
EXTT2=
EXTT3=
EXTT4=
EXTT5=
EXTT6=
EXTT7=
EXTT8=
EXTT9=
EXTT10=Bonus track
PLAYORDER=
